<svg xmlns="http://www.w3.org/2000/svg" version="1.1" xmlns:xlink="http://www.w3.org/1999/xlink" width="512" height="512" x="0" y="0" viewBox="0 0 512 512" style="enable-background:new 0 0 512 512" xml:space="preserve" class=""><g><clipPath id="a"><path d="M434 321.4c-6.1 13.9-14.3 30.6-.8 43l19.8 19.8c9.9 9.9 9.9 26.2 0 36.1L420.3 453c-9.9 9.9-26.2 9.9-36.1 0-12.6-11.9-28.5-35.5-48.6-24.9-14.1 5.5-31.7 11.6-30.9 29.9v27.9c0 14.1-11.5 25.5-25.5 25.5H233c-14.1 0-25.5-11.5-25.5-25.5V458c0-10.9-6.5-20.2-16.7-24-13.9-6.1-30.6-14.3-43-.8L128 453c-10 9.9-26.2 9.9-36.1 0L59 420.3c-9.9-9.9-9.9-26.2 0-36.1l19.8-19.8c13.6-12.5 5.3-29-.8-43-6.5-21.6-35-16.2-51.9-16.7C12 304.7.6 293.2.6 279.2V233c0-14.1 11.5-25.5 25.5-25.5H54c10.9 0 20.2-6.5 24-16.7 6.1-13.9 14.3-30.6.8-43L59 128c-9.9-9.9-9.9-26.2 0-36.1L91.7 59c9.9-9.9 26.2-9.9 36.1 0l19.8 19.8c7.7 7.7 18.9 9.7 28.8 5.1 14.1-5.5 31.7-11.6 30.9-29.9V26.1C207.3 12 218.8.6 232.8.6H279c14.1 0 25.5 11.5 25.5 25.5V54c0 10.9 6.5 20.2 16.7 24 13.9 6.1 30.5 14.3 43 .8L384 59c9.9-9.9 26.2-9.9 36.1 0L453 91.7c9.9 9.9 9.9 26.2 0 36.1l-19.8 19.8c-13.6 12.5-5.3 29 .8 43 6.5 21.6 35 16.2 51.9 16.7 14.1 0 25.5 11.5 25.5 25.5V279c0 14.1-11.5 25.5-25.5 25.5-17.3.7-45.2-4.8-51.9 16.9zM363 256c-4.4-141.5-209.7-141.4-214.1 0 4.4 141.5 209.8 141.4 214.1 0z" fill="#000000" opacity="1"></path></clipPath><clipPath id="b"><path d="M129.9 511.4h252.2c15.7.5 28.6-15.3 25-30.6l-6.8-33.8c-5.4-26.9-22.5-49.9-49.9-49.9H161.6c-27.4 0-44.5 23-49.9 49.9l-6.8 33.8c-3.6 15.3 9.3 31.1 25 30.6z" fill="#000000" opacity="1"></path></clipPath><clipPath id="c"><path d="M256.6 327.2c22.8 0 41.5 18.6 41.5 41.5v36.5c0 22.8-18.7 41.5-41.5 41.5s-41.5-18.7-41.5-41.5v-36.5c0-22.8 18.7-41.5 41.5-41.5z" fill="#000000" opacity="1"></path></clipPath><clipPath id="d"><path d="m251.2 428-34.9-33.7c-4.6-4.5-11.2-5.5-17.1-2.9l-11.5 5.2c-8.9 3.7-12.2 16.3-5.7 23.7l34.1 40.6c2.9 3.5 6.6 5.6 11.2 5.9 9.3 1.7 18.1-11.4 24.1-16.5 6.2-5.9 6.1-16.6-.2-22.3z" fill="#000000" opacity="1"></path></clipPath><clipPath id="e"><path d="M142.5 229.2c-29.5 8.4-10.1 80.7 19.6 73.2 29.5-8.4 10.1-80.7-19.6-73.2z" fill="#000000" opacity="1"></path></clipPath><clipPath id="f"><path d="m260.8 428 34.9-33.7c4.6-4.5 11.2-5.5 17.1-2.9l11.5 5.2c8.9 3.7 12.2 16.3 5.7 23.7l-34 40.6c-2.9 3.5-6.6 5.6-11.2 5.9-9.3 1.7-18.1-11.4-24.1-16.5-6.3-5.9-6.2-16.6.1-22.3z" fill="#000000" opacity="1"></path></clipPath><clipPath id="g"><path d="M370.6 229.2c29.5 8.4 10.1 80.7-19.6 73.2-29.5-8.4-10.1-80.7 19.6-73.2z" fill="#000000" opacity="1"></path></clipPath><path fill="#54b76a" fill-rule="evenodd" d="M434 321.4c-6.1 13.9-14.3 30.6-.8 43l19.8 19.8c9.9 9.9 9.9 26.2 0 36.1L420.3 453c-9.9 9.9-26.2 9.9-36.1 0-12.6-11.9-28.5-35.5-48.6-24.9-14.1 5.5-31.7 11.6-30.9 29.9v27.9c0 14.1-11.5 25.5-25.5 25.5H233c-14.1 0-25.5-11.5-25.5-25.5V458c0-10.9-6.5-20.2-16.7-24-13.9-6.1-30.6-14.3-43-.8L128 453c-10 9.9-26.2 9.9-36.1 0L59 420.3c-9.9-9.9-9.9-26.2 0-36.1l19.8-19.8c13.6-12.5 5.3-29-.8-43-6.5-21.6-35-16.2-51.9-16.7C12 304.7.6 293.2.6 279.2V233c0-14.1 11.5-25.5 25.5-25.5H54c10.9 0 20.2-6.5 24-16.7 6.1-13.9 14.3-30.6.8-43L59 128c-9.9-9.9-9.9-26.2 0-36.1L91.7 59c9.9-9.9 26.2-9.9 36.1 0l19.8 19.8c7.7 7.7 18.9 9.7 28.8 5.1 14.1-5.5 31.7-11.6 30.9-29.9V26.1C207.3 12 218.8.6 232.8.6H279c14.1 0 25.5 11.5 25.5 25.5V54c0 10.9 6.5 20.2 16.7 24 13.9 6.1 30.5 14.3 43 .8L384 59c9.9-9.9 26.2-9.9 36.1 0L453 91.7c9.9 9.9 9.9 26.2 0 36.1l-19.8 19.8c-13.6 12.5-5.3 29 .8 43 6.5 21.6 35 16.2 51.9 16.7 14.1 0 25.5 11.5 25.5 25.5V279c0 14.1-11.5 25.5-25.5 25.5-17.3.7-45.2-4.8-51.9 16.9zM363 256c-4.4-141.5-209.7-141.4-214.1 0 4.4 141.5 209.8 141.4 214.1 0z" clip-rule="evenodd" opacity="1" class=""></path><g clip-path="url(#a)"><path fill="#59d96c" fill-rule="evenodd" d="M434 281.2c-6.1 13.9-14.3 30.6-.8 43L453 344c9.9 10 9.9 26.2 0 36.1l-32.7 32.7c-9.9 9.9-26.2 9.9-36.1 0-12.6-11.9-28.5-35.5-48.6-24.9-14.1 5.5-31.7 11.6-30.9 29.9v27.9c0 14.1-11.5 25.5-25.5 25.5H233c-14.1 0-25.5-11.5-25.5-25.5v-27.9c0-10.9-6.5-20.2-16.7-24-13.9-6.1-30.6-14.3-43-.8L128 412.8c-10 9.9-26.2 9.9-36.1 0L59 380.1c-9.9-9.9-9.9-26.2 0-36.1l19.8-19.8c13.6-12.5 5.3-29-.8-43-6.5-21.6-35-16.2-51.9-16.7C12 264.5.6 253 .6 238.9v-46.2c0-14.1 11.5-25.5 25.5-25.5H54c10.9 0 20.2-6.5 24-16.7 6.1-13.9 14.3-30.6.8-43L59 87.7c-9.9-9.9-9.9-26.2 0-36.1l32.7-32.7c9.9-9.9 26.2-9.9 36.1 0l19.8 19.8c7.7 7.7 18.9 9.7 28.8 5.1 14.1-5.5 31.7-11.6 30.9-29.9V-14c0-14.1 11.5-25.5 25.5-25.5H279c14.1 0 25.5 11.5 25.5 25.5v27.9c0 10.9 6.5 20.2 16.7 24 13.9 6.1 30.5 14.3 43 .8L384 18.9c9.9-9.9 26.2-9.9 36.1 0L453 51.5c9.9 9.9 9.9 26.2 0 36.1l-19.8 19.8c-13.6 12.5-5.3 29 .8 43 6.5 21.6 35 16.2 51.9 16.7 14.1 0 25.5 11.5 25.5 25.5v46.2c0 14.1-11.5 25.5-25.5 25.5-17.3.7-45.2-4.8-51.9 16.9zm-71-65.4c-4.4-141.5-209.7-141.4-214.1 0 4.4 141.5 209.8 141.4 214.1 0z" clip-rule="evenodd" opacity="1" class=""></path></g><path fill="#fd8644" fill-rule="evenodd" d="M129.9 511.4h252.2c15.7.5 28.6-15.3 25-30.6l-6.8-33.8c-5.4-26.9-22.5-49.9-49.9-49.9H161.6c-27.4 0-44.5 23-49.9 49.9l-6.8 33.8c-3.6 15.3 9.3 31.1 25 30.6z" clip-rule="evenodd" opacity="1"></path><g clip-path="url(#b)"><path fill="#ffb43f" fill-rule="evenodd" d="M103 511.4h252.2c15.7.5 28.6-15.3 25-30.6l-6.8-33.8c-5.4-26.9-22.5-49.9-49.9-49.9H134.7c-27.4 0-44.5 23-49.9 49.9L78 480.8c-3.7 15.3 9.3 31.1 25 30.6z" clip-rule="evenodd" opacity="1"></path></g><path fill="#ffa2bd" fill-rule="evenodd" d="M256.6 327.2c22.8 0 41.5 18.6 41.5 41.5v36.5c0 22.8-18.7 41.5-41.5 41.5s-41.5-18.7-41.5-41.5v-36.5c0-22.8 18.7-41.5 41.5-41.5z" clip-rule="evenodd" opacity="1"></path><g clip-path="url(#c)"><path fill="#f37ea2" fill-rule="evenodd" d="M256.6 140c-54.6 0-99.4 44.7-99.4 99.3v52.8c4.3 131.2 194.4 131.2 198.7 0v-52.8c0-54.6-44.7-99.3-99.3-99.3z" clip-rule="evenodd" opacity="1"></path></g><path fill="#c0e1fe" fill-rule="evenodd" d="m251.2 428-34.9-33.7c-4.6-4.5-11.2-5.5-17.1-2.9l-11.5 5.2c-8.9 3.7-12.2 16.3-5.7 23.7l34.1 40.6c2.9 3.5 6.6 5.6 11.2 5.9 9.3 1.7 18.1-11.4 24.1-16.5 6.2-5.9 6.1-16.6-.2-22.3z" clip-rule="evenodd" opacity="1"></path><g clip-path="url(#d)"><path fill="#daeefe" fill-rule="evenodd" d="m240.7 439.8-48.8-47.1c-6.5-6.3-15.7-7.7-23.9-4l-16 7.3c-12.5 5.2-17 22.8-8 33.1l47.6 56.7c4.1 4.9 9.3 7.8 15.6 8.2 13.1 2.3 25.2-16 33.7-23.1 8.8-8.2 8.6-23.1-.2-31.1z" clip-rule="evenodd" opacity="1"></path></g><path fill="#ffa2bd" fill-rule="evenodd" d="M142.5 229.2c-29.5 8.4-10.1 80.7 19.6 73.2 29.5-8.4 10.1-80.7-19.6-73.2z" clip-rule="evenodd" opacity="1"></path><g clip-path="url(#e)"><path fill="#f37ea2" fill-rule="evenodd" d="M245.8 155.6c-55-2.6-102 41.6-101.9 96.8 3.7 128.6 195 128.6 198.7 0 .1-53.2-43.5-96.8-96.8-96.8z" clip-rule="evenodd" opacity="1"></path></g><path fill="#c0e1fe" fill-rule="evenodd" d="m260.8 428 34.9-33.7c4.6-4.5 11.2-5.5 17.1-2.9l11.5 5.2c8.9 3.7 12.2 16.3 5.7 23.7l-34 40.6c-2.9 3.5-6.6 5.6-11.2 5.9-9.3 1.7-18.1-11.4-24.1-16.5-6.3-5.9-6.2-16.6.1-22.3z" clip-rule="evenodd" opacity="1"></path><g clip-path="url(#f)"><path fill="#daeefe" fill-rule="evenodd" d="m271.3 439.8 48.8-47.1c6.5-6.3 15.7-7.7 23.9-4l16 7.3c12.5 5.2 17 22.8 8 33.1l-47.6 56.7c-4.1 4.9-9.3 7.8-15.6 8.2-13.1 2.3-25.2-16-33.8-23.1-8.7-8.2-8.5-23.1.3-31.1z" clip-rule="evenodd" opacity="1"></path></g><path fill="#ffa2bd" fill-rule="evenodd" d="M370.6 229.2c29.5 8.4 10.1 80.7-19.6 73.2-29.5-8.4-10.1-80.7 19.6-73.2z" clip-rule="evenodd" opacity="1"></path><g clip-path="url(#g)"><path fill="#f37ea2" fill-rule="evenodd" d="M267.3 155.6c55-2.6 102 41.6 101.9 96.8-3.7 128.6-195 128.6-198.7 0 0-53.2 43.6-96.8 96.8-96.8z" clip-rule="evenodd" opacity="1"></path></g><path fill="#ffcebf" fill-rule="evenodd" d="M256.6 126.7c-54.6 0-99.4 44.7-99.4 99.3v52.8c4.3 131.2 194.4 131.2 198.7 0V226c0-54.6-44.7-99.3-99.3-99.3z" clip-rule="evenodd" opacity="1" class=""></path><path fill="#465a65" fill-rule="evenodd" d="M262.4 105.4c-82.6-2.7-63.9 32.2-83.4 47.1-42.4 6.9-30.3 45.2-21.8 75.9 9-1.3 26.9-15.2 37.7-23.9 4.9-3.9 11.4-4.3 16.6-.9 19.4 12.4 38.1 17.2 51.5 18.9 9.7 1.2 18.7-4 22.5-13.1 11.3-27.4 61.5 13.5 70.4 18.2 22.2-44.6-6.8-119.4-93.5-122.2z" clip-rule="evenodd" opacity="1" class=""></path><path fill="#fd8644" fill-rule="evenodd" d="M104.9 483.8c-2.8 0-2.7 4.3 0 4.3 1.2 0 3.4.3 4-1.1 1.2-2.9-2-3.6-4-3.2zm302.2 4.2c2.8 0 2.7-4.3 0-4.3-1.2 0-3.4-.3-4 1.1-1.2 2.9 2 3.5 4 3.2zm-23.1 0c2.8 0 2.7-4.3 0-4.3h-4.2c-2.8 0-2.7 4.3 0 4.3zm-25.2 0c2.8 0 2.7-4.3 0-4.3h-4.2c-2.8 0-2.7 4.3 0 4.3zm-25.1 0c2.8 0 2.7-4.3 0-4.3h-4.2c-2.8 0-2.7 4.3 0 4.3zm-25.2 0c2.8 0 2.7-4.3 0-4.3h-4.2c-2.8 0-2.7 4.3 0 4.3zm-25.2 0c2.8 0 2.7-4.3 0-4.3h-4.2c-2.8 0-2.7 4.3 0 4.3zm-25.2 0c2.8 0 2.7-4.3 0-4.3h-4.2c-2.8 0-2.7 4.3 0 4.3zm-25.2 0c2.8 0 2.7-4.3 0-4.3h-4.2c-2.8 0-2.7 4.3 0 4.3zm-25.2 0c2.8 0 2.7-4.3 0-4.3h-4.2c-2.8 0-2.7 4.3 0 4.3zm-25.2 0c2.8 0 2.7-4.3 0-4.3h-4.2c-2.8 0-2.7 4.3 0 4.3zm-25.1 0c2.8 0 2.7-4.3 0-4.3h-4.2c-2.8 0-2.7 4.3 0 4.3zm-25.2 0c2.8 0 2.7-4.3 0-4.3H128c-2.8 0-2.7 4.3 0 4.3z" clip-rule="evenodd" opacity="1"></path></g></svg>
